<?xml version="1.0" standalone="no"?>
<!DOCTYPE svg PUBLIC "-//W3C//DTD SVG 1.1//EN" "http://www.w3.org/Graphics/SVG/1.1/DTD/svg11.dtd">
<!--Generator: Xara Xtreme (www.xara.com), SVG filter version: 1.0.0.13-->
<svg stroke-width="0.501" stroke-linejoin="bevel" fill-rule="evenodd" xmlns:xlink="http://www.w3.org/1999/xlink" xmlns="http://www.w3.org/2000/svg" version="1.1" overflow="visible" width="638.25pt" height="236.25pt" viewBox="0 0 638.25 236.25">
 <defs>
  <marker id="DefaultArrow2" markerUnits="strokeWidth" viewBox="0 0 1 1" markerWidth="1" markerHeight="1" overflow="visible" orient="auto">
   <!-- REF_ARROW_STRAIGHT (-2) -->
   <g transform="scale(0.0092592592)">
    <!-- 1/108 -->
    <path d="M -9 54 L -9 -54 L 117 0 z"/>
   </g>
  </marker>
  <marker id="DefaultArrow3" markerUnits="strokeWidth" viewBox="0 0 1 1" markerWidth="1" markerHeight="1" overflow="visible" orient="auto">
   <!-- REF_ARROW_ANGLED -->
   <g transform="scale(0.0092592592)">
    <path d="M -27 54 L -9 0 L -27 -54 L 135 0 z"/>
   </g>
  </marker>
  <marker id="DefaultArrow4" markerUnits="strokeWidth" viewBox="0 0 1 1" markerWidth="1" markerHeight="1" overflow="visible" orient="auto">
   <!-- REF_ARROW_ROUNDED -->
   <g transform="scale(0.0092592592)">
    <path d="M -9,0 L -9,-45 C -9,-51.708 2.808,-56.580 9,-54 L 117,-9 C 120.916,-7.369 126.000,-4.242 126,0 C 126,4.242 120.916,7.369 117,9 L 9,54 C 2.808,56.580 -9,51.708 -9,45 z"/>
   </g>
  </marker>
  <marker id="DefaultArrow5" markerUnits="strokeWidth" viewBox="0 0 1 1" markerWidth="1" markerHeight="1" overflow="visible" orient="auto">
   <!-- REF_ARROW_SPOT -->
   <g transform="scale(0.0092592592)">
    <path d="M -54, 0 C -54,29.807 -29.807,54 0,54 C 29.807,54 54,29.807 54,0 C 54,-29.807 29.807,-54 0,-54 C -29.807,-54 -54,-29.807 -54,0 z"/>
   </g>
  </marker>
  <marker id="DefaultArrow6" markerUnits="strokeWidth" viewBox="0 0 1 1" markerWidth="1" markerHeight="1" overflow="visible" orient="auto">
   <!-- REF_ARROW_DIAMOND -->
   <g transform="scale(0.0092592592)">
    <path d="M -63,0 L 0,63 L 63,0 L 0,-63 z"/>
   </g>
  </marker>
  <marker id="DefaultArrow7" markerUnits="strokeWidth" viewBox="0 0 1 1" markerWidth="1" markerHeight="1" overflow="visible" orient="auto">
   <!-- REF_ARROW_FEATHER -->
   <g transform="scale(0.0092592592)">
    <path d="M 18,-54 L 108,-54 L 63,0 L 108,54 L 18, 54 L -36,0 z"/>
   </g>
  </marker>
  <marker id="DefaultArrow8" markerUnits="strokeWidth" viewBox="0 0 1 1" markerWidth="1" markerHeight="1" overflow="visible" orient="auto">
   <!-- REF_ARROW_FEATHER2 -->
   <g transform="scale(0.0092592592)">
    <path d="M -36,0 L 18,-54 L 54,-54 L 18,-18 L 27,-18 L 63,-54 L 99,-54 L 63,-18 L 72,-18 L 108,-54 L 144,-54 L 90,0 L 144,54 L 108,54 L 72,18 L 63,18 L 99,54 L 63,54 L 27,18 L 18,18 L 54,54 L 18,54 z"/>
   </g>
  </marker>
  <marker id="DefaultArrow9" markerUnits="strokeWidth" viewBox="0 0 1 1" markerWidth="1" markerHeight="1" overflow="visible" orient="auto">
   <!-- REF_ARROW_HOLLOWDIAMOND -->
   <g transform="scale(0.0092592592)">
    <path d="M 0,45 L -45,0 L 0, -45 L 45, 0 z M 0, 63 L-63, 0 L 0, -63 L 63, 0 z"/>
   </g>
  </marker>
  <filter id="StainedFilter">
   <feBlend mode="multiply" in2="BackgroundImage" in="SourceGraphic" result="blend"/>
   <feComposite in="blend" in2="SourceAlpha" operator="in" result="comp"/>
  </filter>
  <filter id="BleachFilter">
   <feBlend mode="screen" in2="BackgroundImage" in="SourceGraphic" result="blend"/>
   <feComposite in="blend" in2="SourceAlpha" operator="in" result="comp"/>
  </filter>
  <filter id="InvertTransparencyBitmapFilter">
   <feComponentTransfer>
    <feFuncR type="gamma" amplitude="1.055" exponent=".416666666" offset="-0.055"/>
    <feFuncG type="gamma" amplitude="1.055" exponent=".416666666" offset="-0.055"/>
    <feFuncB type="gamma" amplitude="1.055" exponent=".416666666" offset="-0.055"/>
   </feComponentTransfer>
   <feComponentTransfer>
    <feFuncR type="linear" slope="-1" intercept="1"/>
    <feFuncG type="linear" slope="-1" intercept="1"/>
    <feFuncB type="linear" slope="-1" intercept="1"/>
    <feFuncA type="linear" slope="1" intercept="0"/>
   </feComponentTransfer>
   <feComponentTransfer>
    <feFuncR type="gamma" amplitude="1" exponent="2.4" offset="0"/>
    <feFuncG type="gamma" amplitude="1" exponent="2.4" offset="0"/>
    <feFuncB type="gamma" amplitude="1" exponent="2.4" offset="0"/>
   </feComponentTransfer>
  </filter>
 </defs>
 <g id="Document" fill="none" stroke="black" font-family="Times New Roman" font-size="16" transform="scale(1 -1)">
  <g id="Spread" transform="translate(0 -375)">
   <g id="Page background">
    <rect x="0.001" y="0.001" width="374.999" height="374.999" fill="#ffffff" stroke="none" stroke-width="0" stroke-linejoin="bevel" stroke-miterlimit="79.8403193612775"/>
   </g>
   <g id="Layer 1">
    <path d="M 41.25,234.252 L 41.25,255.86 L 64.023,255.86 L 64.023,234.252 L 41.25,234.252 Z" fill="#666666" stroke-width="2.05" stroke="none" fill-rule="evenodd" marker-start="none" marker-end="none" stroke-miterlimit="79.8403193612775"/>
    <path d="M 313.622,179.941 C 310.378,181.526 306.984,182.957 303.479,184.267 L 303.479,189.292 C 306.972,190.599 310.361,192.03 313.622,193.63 C 318.141,195.84 322.389,198.377 326.25,201.291 L 326.25,172.261 C 322.389,175.185 318.141,177.726 313.622,179.941 Z" fill="#666666" stroke-width="2.05" stroke="none" fill-rule="evenodd" marker-start="none" marker-end="none" stroke-miterlimit="79.8403193612775"/>
    <path d="M 41.25,89.722 L 41.25,215.866 L 64.023,215.866 L 64.023,119.953 L 111.983,227.947 C 114.567,233.732 118.178,237.769 122.837,240.127 C 127.514,242.508 133.542,243.657 140.825,243.657 C 148.026,243.657 153.976,242.508 158.653,240.127 C 163.328,237.769 166.876,233.732 169.297,227.947 L 213.609,124.293 L 213.609,256.397 L 236.359,256.397 L 236.359,201.759 C 253.378,205.898 269.967,209.468 282.685,215.969 C 293.394,221.441 301.149,228.721 303.479,241.543 L 303.479,277.771 C 303.479,291.989 291.989,303.474 277.797,303.474 L 89.726,303.474 C 75.529,303.474 64.023,291.989 64.023,277.771 L 64.023,274.264 L 41.25,274.264 L 41.25,277.771 C 41.25,304.56 62.937,326.243 89.726,326.243 L 277.797,326.243 C 304.526,326.243 326.25,304.56 326.25,277.771 L 326.25,240.379 C 325.823,237.391 325.107,234.693 324.125,232.23 C 322.764,227.783 320.918,223.79 316.827,217.626 C 311.158,208.774 302.564,201.938 292.482,196.789 C 284.141,192.527 274.9,189.427 265.335,186.79 C 274.904,184.135 284.207,181.01 292.482,176.783 C 300.852,172.498 321.024,152.755 324.488,140.383 C 325.294,138.155 325.879,135.773 326.25,133.182 L 326.25,119.512 L 303.479,119.512 L 303.479,132.033 C 301.149,144.846 293.394,152.125 282.685,157.605 C 270.021,164.071 253.004,167.795 236.354,171.829 L 236.354,119.512 L 189.027,119.512 L 147.35,217.606 C 146.139,220.394 143.883,221.77 140.641,221.77 C 137.377,221.77 135.1,220.394 133.726,217.606 L 90.238,119.447 L 64.023,119.447 L 64.023,89.722 C 64.023,75.53 75.529,64.019 89.726,64.019 L 277.797,64.019 C 291.989,64.019 303.479,75.53 303.479,89.722 L 303.479,100.339 L 326.25,100.339 L 326.25,89.722 C 326.25,62.995 304.526,41.251 277.797,41.251 L 89.726,41.251 C 62.937,41.251 41.25,62.995 41.25,89.722 Z M 127.683,169.461 C 127.683,176.258 133.196,181.776 139.984,181.776 C 146.771,181.776 152.285,176.258 152.285,169.461 C 152.285,162.666 146.771,157.147 139.984,157.147 C 133.196,157.147 127.683,162.666 127.683,169.461 Z" fill="#008abf" stroke-width="2.05" stroke="none" fill-rule="evenodd" marker-start="none" marker-end="none" stroke-miterlimit="79.8403193612775"/>
   </g>
  </g>
  <g id="Spread_1" transform="translate(0 -375)">
   <g id="Page background_1">
    <rect x="0.001" y="0.001" width="374.999" height="374.999" fill="#333333" stroke="none" stroke-width="0" stroke-linejoin="bevel" stroke-miterlimit="79.8403193612775"/>
   </g>
   <g id="Layer 1_1">
    <path d="M 41.249,234.253 L 41.249,255.861 L 64.022,255.861 L 64.022,234.253 L 41.249,234.253 Z" fill="#ffffff" stroke-width="2.05" stroke="none" fill-rule="evenodd" marker-start="none" marker-end="none" stroke-miterlimit="79.8403193612775"/>
    <path d="M 313.623,179.942 C 310.38,181.527 306.986,182.957 303.48,184.268 L 303.48,189.293 C 306.973,190.6 310.363,192.03 313.623,193.631 C 318.142,195.841 322.391,198.378 326.252,201.292 L 326.252,172.261 C 322.391,175.186 318.142,177.727 313.623,179.942 Z" fill="#ffffff" stroke-width="2.05" stroke="none" fill-rule="evenodd" marker-start="none" marker-end="none" stroke-miterlimit="79.8403193612775"/>
    <path d="M 41.249,89.722 L 41.249,215.867 L 64.022,215.867 L 64.022,119.953 L 111.983,227.948 C 114.567,233.733 118.178,237.77 122.837,240.128 C 127.514,242.51 133.542,243.659 140.825,243.659 C 148.027,243.659 153.976,242.51 158.653,240.128 C 163.328,237.77 166.876,233.733 169.298,227.948 L 213.61,124.293 L 213.61,256.398 L 236.36,256.398 L 236.36,201.76 C 253.38,205.899 269.969,209.469 282.687,215.97 C 293.395,221.442 301.15,228.722 303.48,241.544 L 303.48,277.772 C 303.48,291.99 291.991,303.475 277.798,303.475 L 89.725,303.475 C 75.528,303.475 64.022,291.99 64.022,277.772 L 64.022,274.265 L 41.249,274.265 L 41.249,277.772 C 41.249,304.562 62.937,326.245 89.725,326.245 L 277.798,326.245 C 304.528,326.245 326.252,304.562 326.252,277.772 L 326.252,240.38 C 325.825,237.392 325.109,234.694 324.127,232.231 C 322.766,227.784 320.919,223.791 316.829,217.627 C 311.16,208.775 302.565,201.939 292.483,196.789 C 284.143,192.527 274.901,189.428 265.336,186.791 C 274.906,184.135 284.208,181.01 292.483,176.783 C 300.854,172.498 321.026,152.755 324.49,140.384 C 325.296,138.155 325.881,135.773 326.252,133.182 L 326.252,119.512 L 303.48,119.512 L 303.48,132.033 C 301.15,144.846 293.395,152.126 282.687,157.605 C 270.022,164.071 253.006,167.795 236.356,171.829 L 236.356,119.512 L 189.027,119.512 L 147.35,217.607 C 146.139,220.395 143.883,221.771 140.641,221.771 C 137.377,221.771 135.1,220.395 133.726,217.607 L 90.238,119.447 L 64.022,119.447 L 64.022,89.722 C 64.022,75.529 75.528,64.018 89.725,64.018 L 277.798,64.018 C 291.991,64.018 303.48,75.529 303.48,89.722 L 303.48,100.339 L 326.252,100.339 L 326.252,89.722 C 326.252,62.994 304.528,41.25 277.798,41.25 L 89.725,41.25 C 62.937,41.25 41.249,62.994 41.249,89.722 Z M 127.683,169.461 C 127.683,176.259 133.196,181.776 139.984,181.776 C 146.771,181.776 152.286,176.259 152.286,169.461 C 152.286,162.667 146.771,157.148 139.984,157.148 C 133.196,157.148 127.683,162.667 127.683,169.461 Z" fill="#008abf" stroke-width="2.05" stroke="none" fill-rule="evenodd" marker-start="none" marker-end="none" stroke-miterlimit="79.8403193612775"/>
   </g>
  </g>
  <g id="Spread_2" transform="translate(0 -375)">
   <g id="Page background_2">
    <rect x="0.001" y="0.001" width="374.999" height="374.999" fill="#ffffff" stroke="none" stroke-width="0" stroke-linejoin="bevel" stroke-miterlimit="79.8403193612775"/>
   </g>
   <g id="Layer 1_2">
    <text xml:space="preserve" transform="translate(155.449 160.488) scale(1 -1)" font-size="67.5" font-family="Bahnschrift" fill="#666666" stroke="none" stroke-width="2.527" stroke-miterlimit="79.8403193612775"><tspan x="0" y="0">p</tspan><tspan x="33.56" y="0">r</tspan><tspan x="59.211" y="0">e</tspan><tspan x="92.244" y="0">s</tspan><tspan x="124.091" y="0">s</tspan></text>
    <path d="M 67.5,204.359 L 67.5,210.848 L 74.338,210.848 L 74.338,204.359 L 67.5,204.359 Z" fill="#666666" stroke-width="0.614" stroke="none" fill-rule="evenodd" marker-start="none" marker-end="none" stroke-miterlimit="79.8403193612775"/>
    <path d="M 149.293,188.049 C 148.318,188.524 147.299,188.955 146.246,189.348 L 146.246,190.857 C 147.295,191.249 148.312,191.679 149.293,192.16 C 150.649,192.824 151.925,193.585 153.084,194.46 L 153.084,185.743 C 151.925,186.62 150.649,187.384 149.293,188.049 Z" fill="#666666" stroke-width="0.614" stroke="none" fill-rule="evenodd" marker-start="none" marker-end="none" stroke-miterlimit="79.8403193612775"/>
    <path d="M 67.5,160.957 L 67.5,198.838 L 74.338,198.838 L 74.338,170.035 L 88.741,202.465 C 89.517,204.202 90.601,205.415 92.001,206.123 C 93.405,206.838 95.214,207.183 97.402,207.183 C 99.565,207.183 101.35,206.838 102.757,206.123 C 104.159,205.415 105.226,204.202 105.952,202.465 L 119.259,171.338 L 119.259,211.009 L 126.09,211.009 L 126.09,194.6 C 131.201,195.844 136.183,196.916 140.001,198.868 C 143.217,200.511 145.547,202.698 146.246,206.548 L 146.246,217.427 C 146.246,221.697 142.796,225.145 138.534,225.145 L 82.057,225.145 C 77.793,225.145 74.338,221.697 74.338,217.427 L 74.338,216.374 L 67.5,216.374 L 67.5,217.427 C 67.5,225.473 74.012,231.982 82.057,231.982 L 138.534,231.982 C 146.561,231.982 153.084,225.473 153.084,217.427 L 153.084,206.198 C 152.955,205.301 152.742,204.491 152.445,203.751 C 152.038,202.415 151.483,201.216 150.255,199.365 C 148.552,196.708 145.972,194.655 142.944,193.108 C 140.439,191.828 137.665,190.898 134.792,190.106 C 137.665,189.308 140.459,188.369 142.944,187.1 C 145.457,185.814 151.516,179.884 152.555,176.17 C 152.797,175.5 152.973,174.785 153.084,174.007 L 153.084,169.903 L 146.246,169.903 L 146.246,173.662 C 145.547,177.51 143.217,179.696 140.001,181.341 C 136.199,183.283 131.089,184.402 126.089,185.614 L 126.089,169.903 L 111.876,169.903 L 99.36,199.359 C 98.997,200.197 98.32,200.61 97.346,200.61 C 96.367,200.61 95.683,200.197 95.27,199.359 L 82.212,169.882 L 74.338,169.882 L 74.338,160.957 C 74.338,156.695 77.793,153.238 82.057,153.238 L 138.534,153.238 C 142.796,153.238 146.246,156.695 146.246,160.957 L 146.246,164.145 L 153.084,164.145 L 153.084,160.957 C 153.084,152.93 146.561,146.4 138.534,146.4 L 82.057,146.4 C 74.012,146.4 67.5,152.93 67.5,160.957 Z M 93.455,184.902 C 93.455,186.942 95.111,188.6 97.149,188.6 C 99.188,188.6 100.844,186.942 100.844,184.902 C 100.844,182.861 99.188,181.204 97.149,181.204 C 95.111,181.204 93.455,182.861 93.455,184.902 Z" fill="#008abf" stroke-width="0.614" stroke="none" fill-rule="evenodd" marker-start="none" marker-end="none" stroke-miterlimit="79.8403193612775"/>
   </g>
  </g>
  <g id="Spread_3" transform="translate(0 -375)">
   <g id="Page background_3">
    <rect x="0.001" y="0.001" width="374.999" height="374.999" fill="#333333" stroke="none" stroke-width="0" stroke-linejoin="bevel" stroke-miterlimit="79.8403193612775"/>
   </g>
   <g id="Layer 1_3">
    <text xml:space="preserve" transform="translate(155.449 160.488) scale(1 -1)" fill="#ffffff" font-size="67.5" font-family="Bahnschrift" stroke="none" stroke-width="2.527" stroke-miterlimit="79.8403193612775"><tspan x="0" y="0">p</tspan><tspan x="33.56" y="0">r</tspan><tspan x="59.211" y="0">e</tspan><tspan x="92.244" y="0">s</tspan><tspan x="124.091" y="0">s</tspan></text>
    <path d="M 67.5,204.359 L 67.5,210.848 L 74.338,210.848 L 74.338,204.359 L 67.5,204.359 Z" fill="#ffffff" stroke-width="0.614" stroke="none" fill-rule="evenodd" marker-start="none" marker-end="none" stroke-miterlimit="79.8403193612775"/>
    <path d="M 149.293,188.049 C 148.318,188.524 147.299,188.955 146.246,189.348 L 146.246,190.857 C 147.295,191.249 148.312,191.679 149.293,192.16 C 150.649,192.824 151.925,193.585 153.084,194.46 L 153.084,185.743 C 151.925,186.62 150.649,187.384 149.293,188.049 Z" fill="#ffffff" stroke-width="0.614" stroke="none" fill-rule="evenodd" marker-start="none" marker-end="none" stroke-miterlimit="79.8403193612775"/>
    <path d="M 67.5,160.957 L 67.5,198.838 L 74.338,198.838 L 74.338,170.035 L 88.741,202.465 C 89.517,204.202 90.601,205.415 92.001,206.123 C 93.405,206.838 95.214,207.183 97.402,207.183 C 99.565,207.183 101.35,206.838 102.757,206.123 C 104.159,205.415 105.226,204.202 105.952,202.465 L 119.259,171.338 L 119.259,211.009 L 126.09,211.009 L 126.09,194.6 C 131.201,195.844 136.183,196.916 140.001,198.868 C 143.217,200.511 145.547,202.698 146.246,206.548 L 146.246,217.427 C 146.246,221.697 142.796,225.145 138.534,225.145 L 82.057,225.145 C 77.793,225.145 74.338,221.697 74.338,217.427 L 74.338,216.374 L 67.5,216.374 L 67.5,217.427 C 67.5,225.473 74.012,231.982 82.057,231.982 L 138.534,231.982 C 146.561,231.982 153.084,225.473 153.084,217.427 L 153.084,206.198 C 152.955,205.301 152.742,204.491 152.445,203.751 C 152.038,202.415 151.483,201.216 150.255,199.365 C 148.552,196.708 145.972,194.655 142.944,193.108 C 140.439,191.828 137.665,190.898 134.792,190.106 C 137.665,189.308 140.459,188.369 142.944,187.1 C 145.457,185.814 151.516,179.884 152.555,176.17 C 152.797,175.5 152.973,174.785 153.084,174.007 L 153.084,169.903 L 146.246,169.903 L 146.246,173.662 C 145.547,177.51 143.217,179.696 140.001,181.341 C 136.199,183.283 131.089,184.402 126.089,185.614 L 126.089,169.903 L 111.876,169.903 L 99.36,199.359 C 98.997,200.197 98.32,200.61 97.346,200.61 C 96.367,200.61 95.683,200.197 95.27,199.359 L 82.212,169.882 L 74.338,169.882 L 74.338,160.957 C 74.338,156.695 77.793,153.238 82.057,153.238 L 138.534,153.238 C 142.796,153.238 146.246,156.695 146.246,160.957 L 146.246,164.145 L 153.084,164.145 L 153.084,160.957 C 153.084,152.93 146.561,146.4 138.534,146.4 L 82.057,146.4 C 74.012,146.4 67.5,152.93 67.5,160.957 Z M 93.455,184.902 C 93.455,186.942 95.111,188.6 97.149,188.6 C 99.188,188.6 100.844,186.942 100.844,184.902 C 100.844,182.861 99.188,181.204 97.149,181.204 C 95.111,181.204 93.455,182.861 93.455,184.902 Z" fill="#008abf" stroke-width="0.614" stroke="none" fill-rule="evenodd" marker-start="none" marker-end="none" stroke-miterlimit="79.8403193612775"/>
   </g>
  </g>
  <g id="Spread_4" transform="translate(0 -236.25)">
   <g id="Page background_4">
    <rect x="0.003" y="0.001" width="638.245" height="236.248" fill="#ffffff" stroke="none" stroke-width="0" stroke-linejoin="bevel" stroke-miterlimit="79.8403193612775"/>
   </g>
   <g id="Layer 1_4">
    <text xml:space="preserve" transform="translate(277.893 81.022) scale(1 -1)" font-size="82.039" font-family="Bahnschrift" fill="#666666" stroke="none" stroke-width="3.071" stroke-miterlimit="79.8403193612775"><tspan x="0" y="0">p</tspan><tspan x="40.789" y="0">r</tspan><tspan x="71.964" y="0">e</tspan><tspan x="112.112" y="0">s</tspan><tspan x="150.818" y="0">s</tspan></text>
    <path d="M 171,134.342 L 171,142.229 L 179.311,142.229 L 179.311,134.342 L 171,134.342 Z" fill="#666666" stroke-width="0.746" stroke="none" fill-rule="evenodd" marker-start="none" marker-end="none" stroke-miterlimit="79.8403193612775"/>
    <path d="M 270.41,114.519 C 269.225,115.097 267.987,115.62 266.707,116.098 L 266.707,117.932 C 267.982,118.409 269.218,118.931 270.41,119.516 C 272.059,120.323 273.609,121.248 275.018,122.311 L 275.018,111.717 C 273.609,112.783 272.059,113.711 270.41,114.519 Z" fill="#666666" stroke-width="0.746" stroke="none" fill-rule="evenodd" marker-start="none" marker-end="none" stroke-miterlimit="79.8403193612775"/>
    <path d="M 171,81.592 L 171,127.632 L 179.311,127.632 L 179.311,92.625 L 196.816,132.04 C 197.759,134.152 199.077,135.626 200.778,136.486 C 202.485,137.355 204.683,137.775 207.343,137.775 C 209.971,137.775 212.141,137.355 213.851,136.486 C 215.555,135.626 216.852,134.152 217.734,132.04 L 233.907,94.209 L 233.907,142.425 L 242.21,142.425 L 242.21,122.481 C 248.422,123.993 254.477,125.296 259.117,127.669 C 263.026,129.666 265.858,132.324 266.707,137.003 L 266.707,150.225 C 266.707,155.415 262.514,159.606 257.334,159.606 L 188.692,159.606 C 183.51,159.606 179.311,155.415 179.311,150.225 L 179.311,148.945 L 171,148.945 L 171,150.225 C 171,160.004 178.914,167.915 188.692,167.915 L 257.334,167.915 C 267.09,167.915 275.018,160.004 275.018,150.225 L 275.018,136.578 C 274.861,135.487 274.602,134.503 274.241,133.603 C 273.747,131.98 273.072,130.522 271.58,128.273 C 269.51,125.043 266.374,122.548 262.694,120.668 C 259.649,119.112 256.278,117.982 252.786,117.019 C 256.278,116.05 259.674,114.908 262.694,113.366 C 265.748,111.803 273.112,104.596 274.375,100.082 C 274.669,99.267 274.883,98.398 275.018,97.453 L 275.018,92.465 L 266.707,92.465 L 266.707,97.033 C 265.858,101.71 263.026,104.367 259.117,106.366 C 254.496,108.727 248.285,110.087 242.209,111.56 L 242.209,92.465 L 224.934,92.465 L 209.722,128.265 C 209.281,129.284 208.458,129.786 207.274,129.786 C 206.085,129.786 205.253,129.284 204.751,128.265 L 188.881,92.439 L 179.311,92.439 L 179.311,81.592 C 179.311,76.412 183.51,72.21 188.692,72.21 L 257.334,72.21 C 262.514,72.21 266.707,76.412 266.707,81.592 L 266.707,85.467 L 275.018,85.467 L 275.018,81.592 C 275.018,71.836 267.09,63.899 257.334,63.899 L 188.692,63.899 C 178.914,63.899 171,71.836 171,81.592 Z M 202.545,110.695 C 202.545,113.174 204.558,115.189 207.035,115.189 C 209.513,115.189 211.526,113.174 211.526,110.695 C 211.526,108.214 209.513,106.2 207.035,106.2 C 204.558,106.2 202.545,108.214 202.545,110.695 Z" fill="#008abf" stroke-width="0.746" stroke="none" fill-rule="evenodd" marker-start="none" marker-end="none" stroke-miterlimit="79.8403193612775"/>
   </g>
  </g>
  <g id="Spread_5" transform="translate(0 -236.25)">
   <g id="Page background_5">
    <rect x="0.003" y="0.001" width="638.245" height="236.248" fill="#333333" stroke="none" stroke-width="0" stroke-linejoin="bevel" stroke-miterlimit="79.8403193612775"/>
   </g>
   <g id="Layer 1_5">
    <text xml:space="preserve" transform="translate(277.893 81.022) scale(1 -1)" fill="#ffffff" font-size="82.039" font-family="Bahnschrift" stroke="none" stroke-width="3.071" stroke-miterlimit="79.8403193612775"><tspan x="0" y="0">p</tspan><tspan x="40.789" y="0">r</tspan><tspan x="71.964" y="0">e</tspan><tspan x="112.112" y="0">s</tspan><tspan x="150.818" y="0">s</tspan></text>
    <path d="M 171,134.342 L 171,142.229 L 179.311,142.229 L 179.311,134.342 L 171,134.342 Z" fill="#ffffff" stroke-width="0.746" stroke="none" fill-rule="evenodd" marker-start="none" marker-end="none" stroke-miterlimit="79.8403193612775"/>
    <path d="M 270.41,114.519 C 269.225,115.097 267.987,115.62 266.707,116.098 L 266.707,117.932 C 267.982,118.409 269.218,118.931 270.41,119.516 C 272.059,120.323 273.609,121.248 275.018,122.311 L 275.018,111.717 C 273.609,112.783 272.059,113.711 270.41,114.519 Z" fill="#ffffff" stroke-width="0.746" stroke="none" fill-rule="evenodd" marker-start="none" marker-end="none" stroke-miterlimit="79.8403193612775"/>
    <path d="M 171,81.592 L 171,127.632 L 179.311,127.632 L 179.311,92.625 L 196.816,132.04 C 197.759,134.152 199.077,135.626 200.778,136.486 C 202.485,137.355 204.683,137.775 207.343,137.775 C 209.971,137.775 212.141,137.355 213.851,136.486 C 215.555,135.626 216.852,134.152 217.734,132.04 L 233.907,94.209 L 233.907,142.425 L 242.21,142.425 L 242.21,122.481 C 248.422,123.993 254.477,125.296 259.117,127.669 C 263.026,129.666 265.858,132.324 266.707,137.003 L 266.707,150.225 C 266.707,155.415 262.514,159.606 257.334,159.606 L 188.692,159.606 C 183.51,159.606 179.311,155.415 179.311,150.225 L 179.311,148.945 L 171,148.945 L 171,150.225 C 171,160.004 178.914,167.915 188.692,167.915 L 257.334,167.915 C 267.09,167.915 275.018,160.004 275.018,150.225 L 275.018,136.578 C 274.861,135.487 274.602,134.503 274.241,133.603 C 273.747,131.98 273.072,130.522 271.58,128.273 C 269.51,125.043 266.374,122.548 262.694,120.668 C 259.649,119.112 256.278,117.982 252.786,117.019 C 256.278,116.05 259.674,114.908 262.694,113.366 C 265.748,111.803 273.112,104.596 274.375,100.082 C 274.669,99.267 274.883,98.398 275.018,97.453 L 275.018,92.465 L 266.707,92.465 L 266.707,97.033 C 265.858,101.71 263.026,104.367 259.117,106.366 C 254.496,108.727 248.285,110.087 242.209,111.56 L 242.209,92.465 L 224.934,92.465 L 209.722,128.265 C 209.281,129.284 208.458,129.786 207.274,129.786 C 206.085,129.786 205.253,129.284 204.751,128.265 L 188.881,92.439 L 179.311,92.439 L 179.311,81.592 C 179.311,76.412 183.51,72.21 188.692,72.21 L 257.334,72.21 C 262.514,72.21 266.707,76.412 266.707,81.592 L 266.707,85.467 L 275.018,85.467 L 275.018,81.592 C 275.018,71.836 267.09,63.899 257.334,63.899 L 188.692,63.899 C 178.914,63.899 171,71.836 171,81.592 Z M 202.545,110.695 C 202.545,113.174 204.558,115.189 207.035,115.189 C 209.513,115.189 211.526,113.174 211.526,110.695 C 211.526,108.214 209.513,106.2 207.035,106.2 C 204.558,106.2 202.545,108.214 202.545,110.695 Z" fill="#008abf" stroke-width="0.746" stroke="none" fill-rule="evenodd" marker-start="none" marker-end="none" stroke-miterlimit="79.8403193612775"/>
   </g>
  </g>
 </g>
</svg>
